<svg xmlns="http://www.w3.org/2000/svg" aria-hidden="true" style="position:absolute;width:0;height:0;overflow:hidden">
  <defs>
    <symbol id="icon-arrow-left" viewBox="0 0 31 32">
      <path fill="#fff" d="m20.448 28.16 2.272-2.272L12.192 15.36 22.72 4.832 20.448 2.56l-12.8 12.8 12.8 12.8z" style="fill:var(--color1, #fff)"/>
      <path fill="none" stroke="#0470e9" stroke-width="1.28" d="m6.742 15.36 13.705 13.705 3.177-3.177-10.527-10.527L23.624 4.834l-3.177-3.178L6.742 15.361z" style="stroke:var(--color2, #0470e9)"/>
    </symbol>
    <symbol id="icon-arrow-right" viewBox="0 0 31 32">
      <path fill="#fff" d="M10.272 28.16 8 25.888 18.528 15.36 8 4.832l2.272-2.272 12.8 12.8-12.8 12.8z" style="fill:var(--color1, #fff)"/>
      <path fill="none" stroke="#0470e9" stroke-width="1.28" d="M23.977 15.36 10.272 29.065l-3.178-3.177 10.528-10.527L7.094 4.834l3.178-3.178 13.705 13.705z" style="stroke:var(--color2, #0470e9)"/>
    </symbol>
    <symbol id="icon-chevron" viewBox="0 0 32 32">
      <path d="M16 25.333c-.265.001-.524-.076-.745-.222s-.393-.355-.494-.6a1.332 1.332 0 0 1 .292-1.458L22.12 16l-7.067-7.053a1.335 1.335 0 0 1 .07-1.81 1.336 1.336 0 0 1 1.81-.07l8 8a1.336 1.336 0 0 1 0 1.88l-8 8a1.337 1.337 0 0 1-.933.387z"/>
      <path d="M8 25.333a1.334 1.334 0 0 1-.947-2.279l7.067-7.053-7.067-7.053a1.34 1.34 0 0 1 1.894-1.894l8 8a1.336 1.336 0 0 1 0 1.88l-8 8a1.338 1.338 0 0 1-.946.4z"/>
    </symbol>
    <symbol id="icon-close" viewBox="0 0 41 32">
      <path fill="#fff" d="M5.309 27.103 30.796 1.616a2.284 2.284 0 1 1 3.232 3.232L8.541 30.335a2.284 2.284 0 1 1-3.232-3.232z" style="fill:var(--color1, #fff)"/>
      <path fill="#fff" d="m9.001 2.028 25.487 25.487a2.284 2.284 0 1 1-3.232 3.232L5.769 5.26a2.284 2.284 0 1 1 3.232-3.232z" style="fill:var(--color1, #fff)"/>
    </symbol>
    <symbol id="icon-menu" viewBox="0 0 41 32">
      <path fill="#fff" d="M2.286 0H38.33a2.286 2.286 0 0 1 0 4.572H2.286a2.286 2.286 0 0 1 0-4.572zM2.286 27.428H38.33a2.286 2.286 0 0 1 0 4.572H2.286a2.286 2.286 0 0 1 0-4.572zM13.363 13.714H38.33a2.286 2.286 0 0 1 0 4.572H13.363a2.286 2.286 0 0 1 0-4.572z" style="fill:var(--color1, #fff)"/>
    </symbol>
  </defs>
</svg>
